<svg width="24" height="24" viewBox="0 0 24 24" fill="none" xmlns="http://www.w3.org/2000/svg">
<path d="M19.835 2H4.16303C3.54203 2 3.05903 2.54 3.12803 3.156L4.92203 19.305C4.96903 19.725 5.26503 20.075 5.67103 20.191L11.713 21.917C11.9 21.97 12.098 21.97 12.285 21.917L18.327 20.191C18.733 20.075 19.029 19.725 19.076 19.305L20.87 3.156C20.939 2.54 20.456 2 19.835 2ZM15.947 8H9.21903L9.42003 10.31L15.497 10.29C15.498 10.29 15.499 10.29 15.5 10.29C15.779 10.29 16.045 10.407 16.234 10.612C16.424 10.818 16.519 11.094 16.496 11.373L16.113 15.982C16.079 16.398 15.79 16.749 15.387 16.862L12.27 17.739C12.182 17.763 12.09 17.776 11.999 17.776C11.905 17.776 11.811 17.763 11.722 17.737L8.63103 16.843C8.23703 16.729 7.95303 16.388 7.91303 15.981L7.83403 15.183C7.77903 14.633 8.18103 14.144 8.73003 14.089C9.27103 14.044 9.77003 14.437 9.82403 14.985L9.83703 15.109L12.003 15.735L14.177 15.124L14.412 12.292L8.50603 12.311C8.50503 12.311 8.50403 12.311 8.50303 12.311C7.98403 12.311 7.55203 11.915 7.50703 11.398L7.13203 7.087C7.10703 6.808 7.20103 6.531 7.39103 6.324C7.58103 6.117 7.84803 6 8.12803 6H15.947C16.5 6 16.947 6.448 16.947 7C16.947 7.552 16.5 8 15.947 8Z" fill="#002230"/>
</svg>
