<?xml version="1.0" encoding="UTF-8"?>
<svg xmlns="http://www.w3.org/2000/svg" xmlns:xlink="http://www.w3.org/1999/xlink" width="60pt" height="60pt" viewBox="0 0 60 60" version="1.1">
<g id="surface4013550">
<path style=" stroke:none;fill-rule:nonzero;fill:rgb(100%,100%,100%);fill-opacity:1;" d="M 48 8 L 12 8 C 9.789062 8 8 9.789062 8 12 L 8 48 C 8 50.210938 9.789062 52 12 52 L 48 52 C 50.210938 52 52 50.210938 52 48 L 52 12 C 52 9.789062 50.210938 8 48 8 Z M 21.90625 44 L 16.007812 44 L 16.007812 25.015625 L 21.90625 25.015625 Z M 18.898438 22.300781 C 16.996094 22.300781 15.457031 20.761719 15.457031 18.863281 C 15.457031 16.964844 16.996094 15.425781 18.898438 15.425781 C 20.792969 15.425781 22.335938 16.964844 22.335938 18.863281 C 22.335938 20.761719 20.792969 22.300781 18.898438 22.300781 Z M 44.007812 44 L 38.113281 44 L 38.113281 34.769531 C 38.113281 32.566406 38.070312 29.734375 35.046875 29.734375 C 31.976562 29.734375 31.503906 32.132812 31.503906 34.609375 L 31.503906 44 L 25.609375 44 L 25.609375 25.015625 L 31.269531 25.015625 L 31.269531 27.609375 L 31.347656 27.609375 C 32.136719 26.117188 34.058594 24.542969 36.929688 24.542969 C 42.902344 24.542969 44.007812 28.476562 44.007812 33.589844 Z M 44.007812 44 "/>
</g>
</svg>
