<svg width="32" height="32" viewBox="0 0 32 32" fill="none" xmlns="http://www.w3.org/2000/svg">
<path d="M9.33329 4V13.3333H10.6666V13.3385C11.9218 11.6667 13.9114 10.6667 16 10.6667C19.677 10.6667 22.6666 13.6563 22.6666 17.3333C22.6666 21.0104 19.677 24 16 24C14.5208 24 13.1302 23.5104 12 22.6562V17.3333C12 15.1146 13.7812 13.3333 16 13.3333C18.2187 13.3333 20 15.1146 20 17.3333C20 19.5521 18.2187 21.3333 16 21.3333C15.5 21.3333 15.0312 21.2448 14.5885 21.0781L13.9635 20.8385L13.4948 22.0885L14.1198 22.3281C14.7083 22.5469 15.3385 22.6667 16 22.6667C18.9375 22.6667 21.3333 20.2708 21.3333 17.3333C21.3333 14.3958 18.9375 12 16 12C13.0625 12 10.6666 14.3958 10.6666 17.3333V21.3177C10.4427 21.0208 10.2343 20.7031 10.0625 20.3594L9.75517 19.7708L8.57288 20.375L8.87496 20.974C9.32809 21.8646 9.94788 22.6354 10.6666 23.276V23.3333H10.7239C12.1562 24.599 14.0104 25.3333 16 25.3333C20.4114 25.3333 24 21.7448 24 17.3333C24 12.9219 20.4114 9.33333 16 9.33333C14.0156 9.33333 12.1041 10.0833 10.6666 11.3646V5.33333H22.6666V4H9.33329ZM16 6.66667C14.7968 6.66667 13.6354 6.86458 12.552 7.23958L11.9218 7.44792L12.3541 8.71354L12.9843 8.5C13.927 8.17188 14.9427 8 16 8C19.0573 8 21.7656 9.46875 23.4739 11.7396L23.8698 12.2708L24.9375 11.4688L24.5364 10.9375C22.5885 8.34375 19.4843 6.66667 16 6.66667ZM14.6666 15.0573L13.7239 16L14.1927 16.474L15.0573 17.3333L14.1927 18.1927L13.7239 18.6667L14.6666 19.6094L15.1406 19.1406L16 18.276L16.8593 19.1406L17.3333 19.6094L18.276 18.6667L17.8073 18.1927L16.9427 17.3333L17.8073 16.474L18.276 16L17.3333 15.0573L16.8593 15.526L16 16.3906L15.1406 15.526L14.6666 15.0573ZM6.65621 17.8802L5.3385 18.0677L5.42704 18.7292L5.49475 19.1875C5.49475 19.1927 5.49475 19.2031 5.49996 19.2083C6.38538 24.2083 10.7552 28 16 28C19.7916 28 23.1354 26.0156 25.0208 23.0208C25.3698 22.474 25.6666 21.8906 25.9114 21.2813L26.1614 20.6615L24.9218 20.1667L24.6718 20.7865C24.4635 21.3177 24.1979 21.8281 23.8958 22.3125C22.2395 24.9323 19.3281 26.6667 16 26.6667C11.401 26.6667 7.5885 23.349 6.81246 18.9844L6.74996 18.5417L6.65621 17.8802Z" fill="#F96E46"/>
</svg>
