<svg width="38" height="38" viewBox="0 0 38 38" fill="none" xmlns="http://www.w3.org/2000/svg">
<path d="M3.04552 9.78868L19 0.57735L34.9545 9.78868V28.2113L19 37.4226L3.04552 28.2113V9.78868Z" fill="#3C7BCC" stroke="#F2F2F2"/>
<path d="M17.7167 7.45001C12.35 8.03335 8.03332 12.35 7.44999 17.6C6.86665 23.0833 10.0167 27.9833 14.8 29.85C15.15 29.9667 15.5 29.7333 15.5 29.2667V27.4C15.5 27.4 15.0333 27.5167 14.45 27.5167C12.8167 27.5167 12.1167 26.1167 12 25.3C11.8833 24.8333 11.65 24.4833 11.3 24.1333C10.95 24.0167 10.8333 24.0167 10.8333 23.9C10.8333 23.6667 11.1833 23.6667 11.3 23.6667C12 23.6667 12.5833 24.4833 12.8167 24.8333C13.4 25.7667 14.1 26 14.45 26C14.9167 26 15.2667 25.8833 15.5 25.7667C15.6167 24.95 15.9667 24.1333 16.6667 23.6667C13.9833 23.0833 12 21.5667 12 19C12 17.7167 12.5833 16.4333 13.4 15.5C13.2833 15.2667 13.1667 14.6833 13.1667 13.8667C13.1667 13.4 13.1667 12.7 13.5167 12C13.5167 12 15.15 12 16.7833 13.5167C17.3667 13.2833 18.1833 13.1667 19 13.1667C19.8167 13.1667 20.6333 13.2833 21.3333 13.5167C22.85 12 24.6 12 24.6 12C24.8333 12.7 24.8333 13.4 24.8333 13.8667C24.8333 14.8 24.7167 15.2667 24.6 15.5C25.4167 16.4333 26 17.6 26 19C26 21.5667 24.0167 23.0833 21.3333 23.6667C22.0333 24.25 22.5 25.3 22.5 26.35V29.3833C22.5 29.7333 22.85 30.0833 23.3167 29.9667C27.6333 28.2167 30.6667 24.0167 30.6667 19.1167C30.6667 12.1167 24.7167 6.63335 17.7167 7.45001Z" fill="#F2F2F2"/>
</svg>
