<svg width="38" height="38" viewBox="0 0 38 38" fill="none" xmlns="http://www.w3.org/2000/svg">
<path d="M3.04552 9.78868L19 0.57735L34.9545 9.78868V28.2113L19 37.4226L3.04552 28.2113V9.78868Z" fill="#3C7BCC" stroke="#F2F2F2"/>
<path d="M11.6641 8.61328C12.2565 8.61328 12.7943 8.82747 13.2773 9.25586C13.7604 9.68424 14.002 10.2402 14.002 10.9238C14.002 11.571 13.7695 12.1178 13.3047 12.5645C12.849 13.0111 12.3021 13.2344 11.6641 13.2344C11.0078 13.2344 10.4518 13.0065 9.99609 12.5508C9.54948 12.0859 9.32617 11.5391 9.32617 10.9102C9.32617 10.2721 9.55859 9.72982 10.0234 9.2832C10.4883 8.83659 11.0352 8.61328 11.6641 8.61328ZM9.47656 14.9707H13.8105V28H9.47656V14.9707ZM20.8516 16.3242C21.2344 15.7682 21.6673 15.3535 22.1504 15.0801C22.6426 14.8066 23.1895 14.6699 23.791 14.6699C24.821 14.6699 25.6777 15.0482 26.3613 15.8047C27.054 16.5521 27.4004 17.4863 27.4004 18.6074V28H23.0664V19.5098C23.0664 18.7715 22.793 18.4023 22.2461 18.4023C21.8633 18.4023 21.5579 18.6029 21.3301 19.0039C21.1022 19.4049 20.9883 19.9655 20.9883 20.6855V28H16.6953V14.9707H20.4277L20.8516 16.3242Z" fill="#F2F2F2"/>
</svg>
