<svg width="38" height="38" viewBox="0 0 38 38" fill="none" xmlns="http://www.w3.org/2000/svg">
<path d="M3.04552 9.78868L19 0.57735L34.9545 9.78868V28.2113L19 37.4226L3.04552 28.2113V9.78868Z" fill="#3C7BCC" stroke="#F2F2F2"/>
<path d="M14.3333 8.5C11.1122 8.5 8.5 11.1122 8.5 14.3333V23.6667C8.5 26.8878 11.1122 29.5 14.3333 29.5H23.6667C26.8878 29.5 29.5 26.8878 29.5 23.6667V14.3333C29.5 11.1122 26.8878 8.5 23.6667 8.5H14.3333ZM26 10.8333C26.644 10.8333 27.1667 11.356 27.1667 12C27.1667 12.644 26.644 13.1667 26 13.1667C25.356 13.1667 24.8333 12.644 24.8333 12C24.8333 11.356 25.356 10.8333 26 10.8333ZM19 13.1667C22.2212 13.1667 24.8333 15.7788 24.8333 19C24.8333 22.2212 22.2212 24.8333 19 24.8333C15.7788 24.8333 13.1667 22.2212 13.1667 19C13.1667 15.7788 15.7788 13.1667 19 13.1667ZM19 15.5C18.0718 15.5 17.1815 15.8687 16.5251 16.5251C15.8687 17.1815 15.5 18.0718 15.5 19C15.5 19.9282 15.8687 20.8185 16.5251 21.4748C17.1815 22.1312 18.0718 22.5 19 22.5C19.9282 22.5 20.8185 22.1312 21.4748 21.4748C22.1312 20.8185 22.5 19.9282 22.5 19C22.5 18.0718 22.1312 17.1815 21.4748 16.5251C20.8185 15.8687 19.9282 15.5 19 15.5Z" fill="#F2F2F2"/>
</svg>
