<svg width="38" height="38" viewBox="0 0 38 38" fill="none" xmlns="http://www.w3.org/2000/svg">
<path d="M3.04552 9.78868L19 0.57735L34.9545 9.78868V28.2113L19 37.4226L3.04552 28.2113V9.78868Z" fill="#3C7BCC" stroke="#F2F2F2"/>
<path d="M30.6667 9.6655C29.7567 10.2057 27.9308 10.9418 26.8575 11.1542C26.826 11.1623 26.8003 11.1728 26.77 11.181C25.8215 10.2453 24.5218 9.6655 23.0833 9.6655C20.1842 9.6655 17.8333 12.0163 17.8333 14.9155C17.8333 15.0683 17.8205 15.3495 17.8333 15.4988C13.9215 15.4988 10.9442 13.4502 8.80917 10.8322C8.577 11.4155 8.4755 12.3372 8.4755 13.2028C8.4755 14.8373 9.753 16.4427 11.7422 17.4378C11.3758 17.5323 10.9722 17.6 10.5522 17.6C9.87434 17.6 9.15684 17.4215 8.5 16.8802C8.5 16.9 8.5 16.9187 8.5 16.9397C8.5 19.224 10.9243 20.7792 13.0803 21.212C12.6428 21.4698 11.7608 21.4955 11.3303 21.4955C11.027 21.4955 9.95367 21.3567 9.66667 21.303C10.2663 23.1755 12.4293 24.2278 14.4908 24.2652C12.8785 25.5298 11.7597 25.9988 8.458 25.9988H7.33334C9.41934 27.3358 12.0758 28.3333 14.7382 28.3333C23.4065 28.3333 28.3333 21.7265 28.3333 15.4988C28.3333 15.3985 28.331 15.1885 28.3275 14.9773C28.3275 14.9563 28.3333 14.9365 28.3333 14.9155C28.3333 14.884 28.324 14.8537 28.324 14.8222C28.3205 14.6635 28.317 14.5153 28.3135 14.4383C29.2352 13.7733 30.0343 12.9438 30.6667 11.9988C29.8208 12.3745 28.9132 12.6265 27.96 12.7408C28.933 12.1575 30.3155 10.7668 30.6667 9.6655Z" fill="#F2F2F2"/>
</svg>
