<svg width="32" height="32" viewBox="0 0 32 32" fill="none" xmlns="http://www.w3.org/2000/svg">
<path d="M31.9813 10.9448C31.9252 10.5521 31.7102 10.1969 31.383 9.98189L16.7619 0.231376C16.3038 -0.0771253 15.6962 -0.0771253 15.2381 0.231376L0.607654 9.98189C0.233713 10.2343 0 10.6737 0 11.1224V20.8729C0 21.3216 0.233713 21.7704 0.607654 22.0134L15.2287 31.7639C15.6868 32.0724 16.2945 32.0724 16.7526 31.7639L31.383 22.0228C31.7569 21.7797 32 21.331 32 20.8823V11.1318C31.9907 11.0663 31.9907 11.0102 31.9813 10.9448C31.9813 10.9261 31.9907 11.0102 31.9813 10.9448ZM17.3696 3.95209L28.1391 11.1318L23.3246 14.3476L17.3602 10.3558V3.95209H17.3696ZM14.6211 3.95209V10.3652L8.65673 14.357L3.84224 11.1411L14.6211 3.95209ZM2.74847 13.7026L6.18872 16.0023L2.74847 18.3021V13.7026ZM14.6211 28.0526L3.85159 20.8729L8.66608 17.657L14.6304 21.6395V28.0526H14.6211ZM15.9953 19.2556L11.1341 16.0023L15.9953 12.749L20.8566 16.0023L15.9953 19.2556ZM17.3696 28.0526V21.6395L23.3339 17.657L28.1484 20.8729L17.3696 28.0526ZM29.2422 18.3021L25.8019 16.0023L29.2422 13.7026V18.3021Z" fill="#F96E46"/>
</svg>
