<svg width="24" height="24" viewBox="0 0 24 24" fill="none" xmlns="http://www.w3.org/2000/svg">
<path d="M12 2L2.00391 8.60156L2 15.3984L11.9922 22L21.9883 15.3984L21.9922 8.60156L12 2ZM12 14L9 12L12 10L15 12L12 14ZM13 8.26172V5.05859L19.2344 9.17578L16.8008 10.7969L13 8.26172ZM11 8.26172L7.19531 10.7969L4.76562 9.17578L11 5.05859V8.26172ZM5.39453 12L4 12.9297L4.00391 11.0742L5.39453 12ZM7.19531 13.2031L11 15.7383V18.9453L4.76172 14.8242L7.19531 13.2031ZM13 15.7383L16.8008 13.2031L19.2305 14.8203L12.9961 18.9375V15.7383H13ZM18.6055 12L19.9922 11.0742L19.9883 12.9219L18.6055 12Z" fill="black"/>
</svg>
