<svg width="24" height="24" viewBox="0 0 24 24" fill="none" xmlns="http://www.w3.org/2000/svg">
<path d="M21 7V17C21 19.206 19.206 21 17 21H7C4.794 21 3 19.206 3 17V7C3 4.794 4.794 3 7 3H17C19.206 3 21 4.794 21 7ZM7.313 16.067C6.949 16.259 6.777 16.687 6.908 17.077C7.073 17.567 7.637 17.793 8.094 17.552L11.779 15.613C12.376 15.299 12.75 14.68 12.75 14.005C12.75 13.331 12.376 12.712 11.779 12.397L8.094 10.458C7.637 10.217 7.072 10.443 6.908 10.933C6.777 11.323 6.948 11.751 7.313 11.943L11.23 14.004L7.313 16.067Z" fill="#002230"/>
</svg>
