<svg width="24" height="24" viewBox="0 0 24 24" fill="none" xmlns="http://www.w3.org/2000/svg">
<path d="M8.537 24C6.604 24 5.037 22.433 5.037 20.5C5.037 18.567 6.604 17 8.537 17H11.037C11.589 17 12.037 17.448 12.037 18V20.5C12.037 22.433 10.47 24 8.537 24ZM16.5 8H14C13.448 8 13 7.552 13 7V2C13 1.448 13.448 1 14 1H16.5C18.433 1 20 2.567 20 4.5C20 6.433 18.433 8 16.5 8ZM8.5 8H11C11.552 8 12 7.552 12 7V2C12 1.448 11.552 1 11 1H8.5C6.567 1 5 2.567 5 4.5C5 6.433 6.567 8 8.5 8ZM8.5 16H11C11.552 16 12 15.552 12 15V10C12 9.448 11.552 9 11 9H8.5C6.567 9 5 10.567 5 12.5C5 14.433 6.567 16 8.5 16ZM16 9C15.2044 9 14.4413 9.31607 13.8787 9.87868C13.3161 10.4413 13 11.2044 13 12C13 12.7956 13.3161 13.5587 13.8787 14.1213C14.4413 14.6839 15.2044 15 16 15C16.7956 15 17.5587 14.6839 18.1213 14.1213C18.6839 13.5587 19 12.7956 19 12C19 11.2044 18.6839 10.4413 18.1213 9.87868C17.5587 9.31607 16.7956 9 16 9Z" fill="black"/>
</svg>
