<svg width="30" height="30" viewBox="0 0 30 30" fill="none" xmlns="http://www.w3.org/2000/svg">
<path d="M13.3162 0.104034C6.40219 0.855556 0.840926 6.41682 0.0894036 13.1805C-0.662119 20.2448 3.3961 26.5576 9.55858 28.9625C10.0095 29.1128 10.4604 28.8122 10.4604 28.2109V25.8061C10.4604 25.8061 9.85919 25.9564 9.10767 25.9564C7.00341 25.9564 6.10158 24.1527 5.95128 23.1006C5.80097 22.4994 5.50036 22.0485 5.04945 21.5975C4.59854 21.4472 4.44823 21.4472 4.44823 21.2969C4.44823 20.9963 4.89915 20.9963 5.04945 20.9963C5.95128 20.9963 6.7028 22.0485 7.00341 22.4994C7.75493 23.7018 8.65676 24.0024 9.10767 24.0024C9.70889 24.0024 10.1598 23.8521 10.4604 23.7018C10.6107 22.6497 11.0616 21.5975 11.9635 20.9963C8.50645 20.2448 5.95128 18.2909 5.95128 14.9842C5.95128 13.3308 6.7028 11.6775 7.75493 10.475C7.60462 10.1744 7.45432 9.42291 7.45432 8.37078C7.45432 7.76956 7.45432 6.86773 7.90523 5.96591C7.90523 5.96591 10.0095 5.96591 12.1138 7.91986C12.8653 7.61925 13.9174 7.46895 14.9696 7.46895C16.0217 7.46895 17.0738 7.61925 17.9756 7.91986C19.9296 5.96591 22.1842 5.96591 22.1842 5.96591C22.4848 6.86773 22.4848 7.76956 22.4848 8.37078C22.4848 9.57321 22.3345 10.1744 22.1842 10.475C23.2363 11.6775 23.9878 13.1805 23.9878 14.9842C23.9878 18.2909 21.4326 20.2448 17.9756 20.9963C18.8775 21.7479 19.4787 23.1006 19.4787 24.4533V28.3612C19.4787 28.8122 19.9296 29.2631 20.5308 29.1128C26.0921 26.8582 30 21.4472 30 15.1345C30 6.11621 22.3345 -0.948097 13.3162 0.104034Z" fill="#F96E46"/>
</svg>
