<svg xmlns="http://www.w3.org/2000/svg" version="1.1" xmlns:xlink="http://www.w3.org/1999/xlink" xmlns:svgjs="http://svgjs.dev/svgjs" viewBox="0 0 1920 1080"><rect width="1920" height="1080" fill="#031f2b"></rect><g transform="matrix(7.04171909509728e-17,1.15,-1.15,7.04171909509728e-17,1543.2812576293945,-520.6234462738037)"><path d="M0,-1080C-9.17006958924972,-969.5288728778942,-73.0272599100645,-645.6766437922394,-55.020417535498325,-417.17323726736515C-37.01357516093215,-188.66983074249094,111.44345179436806,82.48250204215267,108.04105424739708,291.0204391492453C104.63865670042611,499.55837625633797,-76.21825749132331,623.1976889814842,-75.43480281732415,834.0543853751907C-74.651348143325,1044.911081768897,100.16931515517132,1335.169681740682,112.74178229139201,1556.1606175114837C125.31424942761271,1777.1515532822852,18.790297048565336,2059.3601029185807,0,2160L 1920 2160 L 1920 -1080 Z" fill="url(&quot;#SvgjsLinearGradient1853&quot;)"></path><path d="M240,-1080C231.28243145342256,-991.849370626757,183.37965822287867,-732.187056371192,187.6945887205354,-551.0962237605423C192.0095192181921,-370.0053911498926,260.03559409421774,-172.13157673415873,265.88958298594025,6.544995663898533C271.74357187766276,185.2215680619558,235.1353628543157,332.04491985798074,222.8185220708703,520.9632106278012C210.5016812874249,709.8815013976217,179.0379642105473,974.140933433979,191.9885382852678,1140.0547402828217C204.9391123599883,1305.9685471316645,292.5200562334045,1346.455175101328,300.5219665191932,1516.4460517208577C308.5238768049819,1686.4369283403873,250.08699441986553,2052.741008620143,240,2160L 1920 2160 L 1920 -1080 Z" fill="url(&quot;#SvgjsLinearGradient1854&quot;)"></path><path d="M480,-1080C492.9341064490245,-1020.6622016655998,575.2523052340775,-868.3285492667679,557.6046386941471,-723.9732099935991C539.9569721542166,-579.6178707204302,381.7517931287972,-351.74711753380086,374.1140007604174,-213.86796436098695C366.4762083920376,-75.988811188173,511.30421439326165,-13.118421771117184,511.7778844838684,103.30170904328448C512.2515545744751,219.72183985768612,364.7088179336906,338.9096862998299,376.95602130405786,484.65282052542307C389.2032246744251,630.3959547510162,560.4721415183375,833.367719932839,585.2611047060718,977.7605143968436C610.0500678938062,1122.1533088608483,558.3802634620937,1221.0354461775241,525.6898004304636,1351.0095873094508C492.9993373988335,1480.9837284413775,396.73329325470195,1622.7736257399788,389.11832651629135,1757.6053611884035C381.50335977788075,1892.4370966368283,464.8530544193819,2092.934226864734,480,2160L 1920 2160 L 1920 -1080 Z" fill="url(&quot;#SvgjsLinearGradient1855&quot;)"></path><path d="M720,-1080C715.1095275232836,-985.1597936574203,694.5430894350653,-661.1199787841861,690.6571651397021,-510.95876194452205C686.7712408443389,-360.79754510485805,697.3256126398504,-329.6627521311674,696.6844542278207,-179.03269896201624C696.0432958157909,-28.40264579286506,671.5713557399913,234.76087081535786,686.8102146675233,392.8215570703851C702.0490735950552,550.8822433254123,763.9954730987251,625.2774970275111,788.1176077930126,769.3314185681471C812.2397424873,913.3853401087831,844.0105319357361,1085.8619148026405,831.543022833248,1257.1450863142013C819.0755137307598,1428.428257825762,731.9030569836247,1646.5546286898789,713.3125531780834,1797.030447637512C694.7220493725421,1947.506266585145,718.8854255296806,2099.505074606252,720,2160L 1920 2160 L 1920 -1080 Z" fill="url(&quot;#SvgjsLinearGradient1856&quot;)"></path><path d="M960,-1080C971.1547815801822,-978.8454153007498,1037.3054622290565,-635.4354014637487,1026.9286894810932,-473.0724918044988C1016.5519167331298,-310.7095821452489,896.1730207197762,-285.51557562957737,897.7393635122198,-105.82254204450044C899.3057063046634,73.87049154057652,1044.5567838443856,423.0438874923947,1036.326746235755,605.0857097059629C1028.0967086271246,787.1275319195312,851.3088063327871,830.9923640548142,848.3591378604369,986.428391236909C845.4094693880868,1141.8644184190039,1000.02192504506,1342.10660467135,1018.6287354016539,1537.701872798532C1037.2355457582478,1733.2971409257138,969.7714559002757,2056.283645466422,960,2160L 1920 2160 L 1920 -1080 Z" fill="url(&quot;#SvgjsLinearGradient1857&quot;)"></path><path d="M1200,-1080C1206.4217250496522,-992.6615282010043,1255.736959880725,-742.7863317829,1238.530350297913,-555.9691692060263C1221.323740715101,-369.15200662915265,1090.137285725015,-151.1682361559421,1096.7603425031275,40.902975461241766C1103.38339928124,232.97418707842564,1275.4317781029129,440.02770573312796,1278.2686909665872,596.458100497077C1281.1056038302615,752.888495261026,1139.579628307589,824.8884954654171,1113.7818196851733,979.4853440449363C1087.9840110627576,1134.0821926244555,1109.112142512955,1327.2867493150147,1123.4818392320929,1524.039191974192C1137.8515359512307,1720.791634633369,1187.2469732053487,2054.0065319956984,1200,2160L 1920 2160 L 1920 -1080 Z" fill="url(&quot;#SvgjsLinearGradient1858&quot;)"></path><path d="M1440,-1080C1422.83213286401,-1027.9092158209846,1332.1031366067884,-906.42634894936,1336.9927971840605,-767.4552949259082C1341.8824577613325,-628.4842409024565,1445.9389304306148,-412.69652716493874,1469.3379634636326,-246.1736758592893C1492.7369964966504,-79.65082455363981,1463.9852525551444,88.31338467775493,1477.3869953821675,231.6818129079886C1490.7887382091906,375.05024113822225,1556.3279718048673,511.2531921897876,1549.7484204257717,614.0368935221127C1543.168869046676,716.8205948544378,1442.4817021223346,738.1390512528209,1437.9096871075933,848.384020901939C1433.337672092852,958.6289905510572,1524.6814698128114,1125.4822469173705,1522.3163303373244,1275.5067114168214C1519.9511908618374,1425.5311759162723,1437.4382386442253,1601.1152598014476,1423.7188502546712,1748.530807898644C1409.9994618651172,1895.9463559958406,1437.286475042445,2091.421801316441,1440,2160L 1920 2160 L 1920 -1080 Z" fill="url(&quot;#SvgjsLinearGradient1859&quot;)"></path><path d="M1680,-1080C1670.4143061651885,-1017.149953005981,1623.6340107628384,-868.5642233678999,1622.4858369911308,-702.899718035886C1621.3376632194231,-537.2352127038722,1671.5178625619722,-272.4676036084618,1673.1109573697536,-86.01296800791687C1674.704052177535,100.44166759262802,1634.2287951475125,273.5362245847193,1632.044405837819,415.82809556738334C1629.8600165281257,558.1199665500474,1649.7730091452258,641.4450955912512,1660.0046215115935,767.738257888067C1670.2362338779612,894.0314201848828,1678.135644796469,1034.9624309463488,1693.4340800360246,1173.5870693482782C1708.7325152755802,1312.2117077502076,1754.0342462882645,1435.0839331910227,1751.7952329489272,1599.486088299643C1749.5562196095898,1763.8882434082632,1691.9658721581545,2066.581014716607,1680,2160L 1920 2160 L 1920 -1080 Z" fill="url(&quot;#SvgjsLinearGradient1860&quot;)"></path></g><defs><linearGradient x1="0.1" y1="0" x2="0" y2="1" id="SvgjsLinearGradient1853"><stop stop-color="#031f2b" offset="0"></stop><stop stop-color="#03262b" offset="0"></stop></linearGradient><linearGradient x1="0.1" y1="0" x2="0" y2="1" id="SvgjsLinearGradient1854"><stop stop-color="#031b25" offset="0"></stop><stop stop-color="#032125" offset="0.125"></stop></linearGradient><linearGradient x1="0.1" y1="0" x2="0" y2="1" id="SvgjsLinearGradient1855"><stop stop-color="#021720" offset="0"></stop><stop stop-color="#021c20" offset="0.25"></stop></linearGradient><linearGradient x1="0.1" y1="0" x2="0" y2="1" id="SvgjsLinearGradient1856"><stop stop-color="#02131a" offset="0"></stop><stop stop-color="#02171a" offset="0.375"></stop></linearGradient><linearGradient x1="0.1" y1="0" x2="0" y2="1" id="SvgjsLinearGradient1857"><stop stop-color="#010f15" offset="0"></stop><stop stop-color="#011215" offset="0.5"></stop></linearGradient><linearGradient x1="0.1" y1="0" x2="0" y2="1" id="SvgjsLinearGradient1858"><stop stop-color="#010b0f" offset="0"></stop><stop stop-color="#010d0f" offset="0.625"></stop></linearGradient><linearGradient x1="0.1" y1="0" x2="0" y2="1" id="SvgjsLinearGradient1859"><stop stop-color="#010709" offset="0"></stop><stop stop-color="#010809" offset="0.75"></stop></linearGradient><linearGradient x1="0.1" y1="0" x2="0" y2="1" id="SvgjsLinearGradient1860"><stop stop-color="#000304" offset="0"></stop><stop stop-color="#000404" offset="0.875"></stop></linearGradient></defs></svg>