<svg xmlns="http://www.w3.org/2000/svg" version="1.1" xmlns:xlink="http://www.w3.org/1999/xlink" xmlns:svgjs="http://svgjs.dev/svgjs" viewBox="0 0 1920 1080"><rect width="1920" height="1080" fill="#031f2b"></rect><g transform="matrix(-2.112515728529184e-16,-1.15,1.15,-2.112515728529184e-16,307.99333953857445,1608.3423404693606)"><path d="M0,-1080C-2.8186045805508235,-993.0772820008992,-13.599789289868404,-701.245886184,-16.91162748330494,-558.4636920053956C-20.223465676741476,-415.68149782679114,-20.77492026657618,-379.52135351970844,-19.871029160619216,-223.30683492837318C-18.96713805466225,-67.09231633703789,-5.012411734351065,210.51974329839453,-11.488280847563146,378.8234195426162C-17.964149960775227,547.1270957868378,-52.01847567901777,636.1057137534,-58.72624383989171,786.5152225369568C-65.43401200076565,936.9247313205136,-61.266186028590525,1136.368010816508,-51.73488981280678,1281.280472243957C-42.20359359702303,1426.192933671406,-10.16094818065702,1509.536736475644,-1.5384665451892232,1655.989991101651C7.084015090278573,1802.443245727658,-0.2564110908648705,2075.998331850275,0,2160L 1920 2160 L 1920 -1080 Z" fill="url(&quot;#SvgjsLinearGradient1702&quot;)"></path><path d="M213.33333333333331,-1080C207.8564554605886,-963.0920886951822,185.61609827072272,-593.3012657945515,180.47206609686498,-378.5525321710931C175.32803392300724,-163.80379854763473,174.95716498708933,-0.627535854117184,182.46914029018686,208.49240174075024C189.9811155932844,417.61233933561766,213.1315581883277,665.0238152812807,225.54391791545015,876.1670933981113C237.95627764257262,1087.310371514942,258.97839608327456,1261.3799193414195,256.9432986529217,1475.3520704417342C254.90820122256892,1689.324221542049,220.60166088659804,2045.892011740289,213.33333333333331,2160L 1920 2160 L 1920 -1080 Z" fill="url(&quot;#SvgjsLinearGradient1703&quot;)"></path><path d="M426.66666666666663,-1080C437.6515326548973,-986.3383684069304,499.4627375518776,-690.327806931646,492.57586259605085,-518.0302104415824C485.6889876402241,-345.73261395151883,390.6016165063269,-233.1152697367761,385.3454169317062,-46.21442105961862C380.08921735708554,140.68642761753887,444.8898065359956,409.9212159754434,461.0386651483268,603.3748816213625C477.187523760658,796.8285472672817,487.96234332624033,937.3231616274813,482.2385686056934,1114.5075728158965C476.51479388514645,1291.6919840043117,435.95800048154945,1492.2326108878365,426.696016825045,1666.4813487518536C417.4340331685405,1840.7300866158707,426.6715583597297,2077.7468914586425,426.66666666666663,2160L 1920 2160 L 1920 -1080 Z" fill="url(&quot;#SvgjsLinearGradient1704&quot;)"></path><path d="M640,-1080C630.0084163632932,-1013.5624083755544,583.0595067488096,-845.215821645791,580.0504981797593,-681.3744502533259C577.041489610709,-517.5330788608608,600.7600579360574,-254.08362959506482,621.9459485856983,-96.95177164520939C643.1318392353392,60.18008630464604,699.1770077596185,105.56693893386355,707.1658420776046,261.4166974458067C715.1546763955906,417.2664559577498,674.111512652315,664.7621753696644,669.8789544936144,838.1467794264493C665.6463963349138,1011.5313834832341,677.4127440003984,1168.71104394455,681.7704931254011,1301.7243217865157C686.1282422504038,1434.7375996284813,702.9871980978638,1493.1805001093298,696.0254492436303,1636.2264464782438C689.0637003893968,1779.2723928471578,649.3375748739384,2072.704407746374,640,2160L 1920 2160 L 1920 -1080 Z" fill="url(&quot;#SvgjsLinearGradient1705&quot;)"></path><path d="M853.3333333333333,-1080C857.5569453146264,-971.637007589289,874.8684506031725,-640.2377981142308,878.6750052210923,-429.82204553573456C882.4815598390121,-219.40629295723832,872.4123023445896,-22.502155583831126,876.172661040852,182.49451547097732C879.9330197371143,387.4911865257858,909.2747120880306,570.41298006859,901.2371573986661,800.1579807931163C893.1996027093016,1029.9029815176427,835.9313035822206,1334.3241832836547,827.9473329046651,1560.9645198181354C819.9633622271097,1787.604856352616,849.1023332618886,2060.1607533030224,853.3333333333333,2160L 1920 2160 L 1920 -1080 Z" fill="url(&quot;#SvgjsLinearGradient1706&quot;)"></path><path d="M1066.6666666666667,-1080C1062.6690214931862,-971.5431071067754,1050.4001515632306,-647.150208704435,1042.680795625783,-429.2586426406524C1034.9614396883355,-211.36707657686975,1010.5063845118152,4.832213235892738,1020.3505310419822,227.349396382696C1030.1946775721492,449.8665795294993,1092.753289573467,694.1523550724839,1101.745674806785,905.8444562401671C1110.738060040103,1117.5365574078503,1080.151343798576,1288.4760794288227,1074.3048424418896,1497.502003388795C1068.4583410852033,1706.5279273487672,1067.9396959625371,2049.583667231466,1066.6666666666667,2160L 1920 2160 L 1920 -1080 Z" fill="url(&quot;#SvgjsLinearGradient1707&quot;)"></path><path d="M1280,-1080C1269.562355872761,-1004.6025130475176,1210.1491853307405,-789.4132930059659,1217.3741352365657,-627.6150782851058C1224.599085142391,-465.81686356424575,1302.9670966232877,-257.4154205814296,1323.349699434952,-109.21071167483932C1343.7323022466164,38.99399723175098,1336.0498707105821,105.36493510801512,1339.6697521065516,261.6131751544359C1343.2896335025212,417.8614152008567,1360.5442036667412,670.3160475229397,1345.0689878107694,828.2787286036854C1329.5937719547976,986.2414096844311,1257.3530890054126,1063.330988337624,1246.8184569707212,1209.3892616389103C1236.2838249360298,1355.4475349401966,1276.330938431075,1546.1932453512213,1281.8611956026216,1704.628368411403C1287.391452774168,1863.0634914715847,1280.3101992671036,2084.104728068567,1280,2160L 1920 2160 L 1920 -1080 Z" fill="url(&quot;#SvgjsLinearGradient1708&quot;)"></path><path d="M1493.3333333333333,-1080C1482.2192087786946,-973.1993340965406,1416.56203077601,-666.2873915081746,1426.6485860055006,-439.1960045792436C1436.7351412349913,-212.10461765031272,1554.370419251678,70.48722524644222,1553.8526647102763,282.5483215735852C1553.3349101688746,494.6094179007282,1423.377786409225,621.9181723562176,1423.5420587570904,833.1705733836143C1423.7063311049558,1044.422974411011,1543.2064197014276,1328.9244899685677,1554.838298797468,1550.0627277379654C1566.4701778935084,1771.200965507363,1503.584160910689,2058.3437879563276,1493.3333333333333,2160L 1920 2160 L 1920 -1080 Z" fill="url(&quot;#SvgjsLinearGradient1709&quot;)"></path><path d="M1706.6666666666665,-1080C1697.784001979966,-941.090527274101,1645.2085092297227,-528.032233879616,1653.3706785464628,-246.5431636446059C1661.532847863203,34.945906590404206,1755.322068441213,341.9497343801373,1755.6396825671077,608.9344214100605C1755.9572966930023,875.9191084399838,1663.4385326185698,1096.8540287699436,1655.2763633018296,1355.3649585349335C1647.1141939850895,1613.8758882999234,1698.1016161058603,2025.8941597558223,1706.6666666666665,2160L 1920 2160 L 1920 -1080 Z" fill="url(&quot;#SvgjsLinearGradient1710&quot;)"></path></g><defs><linearGradient x1="0.1" y1="0" x2="0" y2="1" id="SvgjsLinearGradient1702"><stop stop-color="#031f2b" offset="0"></stop><stop stop-color="#03262b" offset="0"></stop></linearGradient><linearGradient x1="0.1" y1="0" x2="0" y2="1" id="SvgjsLinearGradient1703"><stop stop-color="#031b26" offset="0"></stop><stop stop-color="#032126" offset="0.1111111111111111"></stop></linearGradient><linearGradient x1="0.1" y1="0" x2="0" y2="1" id="SvgjsLinearGradient1704"><stop stop-color="#021821" offset="0"></stop><stop stop-color="#021d21" offset="0.2222222222222222"></stop></linearGradient><linearGradient x1="0.1" y1="0" x2="0" y2="1" id="SvgjsLinearGradient1705"><stop stop-color="#02141c" offset="0"></stop><stop stop-color="#02181c" offset="0.3333333333333333"></stop></linearGradient><linearGradient x1="0.1" y1="0" x2="0" y2="1" id="SvgjsLinearGradient1706"><stop stop-color="#021117" offset="0"></stop><stop stop-color="#021417" offset="0.4444444444444444"></stop></linearGradient><linearGradient x1="0.1" y1="0" x2="0" y2="1" id="SvgjsLinearGradient1707"><stop stop-color="#010d12" offset="0"></stop><stop stop-color="#011012" offset="0.5555555555555556"></stop></linearGradient><linearGradient x1="0.1" y1="0" x2="0" y2="1" id="SvgjsLinearGradient1708"><stop stop-color="#01090d" offset="0"></stop><stop stop-color="#010b0d" offset="0.6666666666666666"></stop></linearGradient><linearGradient x1="0.1" y1="0" x2="0" y2="1" id="SvgjsLinearGradient1709"><stop stop-color="#010608" offset="0"></stop><stop stop-color="#010708" offset="0.7777777777777778"></stop></linearGradient><linearGradient x1="0.1" y1="0" x2="0" y2="1" id="SvgjsLinearGradient1710"><stop stop-color="#000203" offset="0"></stop><stop stop-color="#000203" offset="0.8888888888888888"></stop></linearGradient></defs></svg>