<svg width="1440" height="810" viewBox="0 0 1440 810" fill="none" xmlns="http://www.w3.org/2000/svg">
<g clip-path="url(#clip0_8:483)">
<path d="M1440 0H0V810H1440V0Z" fill="#002230"/>
<path d="M-727.464 1175.25C-650.083 1179.92 -402.723 1186.95 -263.176 1203.27C-123.63 1219.58 -31.4567 1260.57 109.816 1273.15C251.088 1285.73 399.771 1302.54 584.457 1278.73C769.143 1254.93 1053.59 1159.71 1217.93 1130.32C1382.27 1100.93 1428.96 1094.91 1570.48 1102.4C1712 1109.88 1984.28 1163.11 2067.04 1175.25V-480.747L-727.464 -480.747L-727.464 1175.25Z" fill="url(#paint0_linear_8:483)"/>
<path d="M-727.464 968.253C-669.369 968.826 -489.646 956.947 -378.894 971.689C-268.142 986.431 -195.131 1040.27 -62.9514 1056.71C69.228 1073.14 282.907 1098.21 414.182 1070.28C545.456 1042.35 616.238 920.857 724.696 889.15C833.155 857.444 953.729 873.578 1064.93 880.041C1176.14 886.503 1286.86 924.488 1391.92 927.928C1496.97 931.368 1582.76 893.96 1695.28 900.681C1807.8 907.402 2005.08 956.991 2067.04 968.253V-480.747L-727.464 -480.747L-727.464 968.253Z" fill="url(#paint1_linear_8:483)"/>
<path d="M-727.464 761.253C-665.033 771.337 -458.899 830.834 -352.878 821.757C-246.856 812.681 -187.968 719.108 -91.3329 706.793C5.30237 694.479 106.466 740.538 226.934 747.868C347.402 755.199 493.834 747.128 631.476 750.778C769.118 754.429 927.288 767.982 1052.78 769.77C1178.28 771.559 1283.9 775.088 1384.46 761.511C1485.02 747.935 1542.36 688.352 1656.12 688.309C1769.89 688.266 1998.55 749.096 2067.04 761.253V-480.747L-727.464 -480.747L-727.464 761.253Z" fill="url(#paint2_linear_8:483)"/>
<path d="M-727.464 554.253C-654.163 568.811 -390.782 645.487 -287.655 641.598C-184.528 637.71 -204.142 528.33 -108.704 530.922C-13.2668 533.514 149.417 652.915 284.969 657.15C420.522 661.386 588.556 585.213 704.613 556.335C820.67 527.457 887.219 480.877 981.311 483.883C1075.4 486.888 1162.17 549.087 1269.16 574.369C1376.15 599.65 1490.26 638.924 1623.24 635.571C1756.22 632.218 1993.07 567.806 2067.04 554.253V-480.747L-727.464 -480.747L-727.464 554.253Z" fill="url(#paint3_linear_8:483)"/>
<path d="M-727.464 347.253C-665.255 347.074 -488.839 340.059 -354.207 346.178C-219.576 352.296 -26.7524 384.824 80.3244 383.963C187.401 383.103 180.335 348.062 288.254 341.013C396.172 333.964 610.422 350.556 727.834 341.669C845.247 332.782 886.943 293.28 992.73 287.691C1098.52 282.103 1244.24 284.675 1362.56 308.14C1480.87 331.604 1585.2 421.962 1702.61 428.48C1820.02 434.999 2006.3 360.791 2067.04 347.253V-480.747L-727.464 -480.747V347.253Z" fill="url(#paint4_linear_8:483)"/>
<path d="M-727.464 140.253C-657.802 133.494 -449.841 104.604 -309.49 99.6945C-169.14 94.7851 -56.5059 95.4288 114.638 110.797C285.782 126.165 558.532 196.504 717.374 191.904C876.217 187.303 906.053 92.0839 1067.69 83.1934C1229.33 74.3028 1520.65 129.05 1687.21 138.56C1853.76 148.07 2003.73 139.971 2067.04 140.253V-480.747L-727.464 -480.747V140.253Z" fill="url(#paint5_linear_8:483)"/>
<path d="M-727.464 -66.7467C-648.524 -52.5081 -378.019 32.9574 -253.825 18.6849C-129.631 4.41231 -105.345 -127.916 17.7014 -152.382C140.748 -176.848 354.845 -143.155 484.455 -128.11C614.066 -113.064 648.143 -62.6761 795.362 -62.1095C942.582 -61.5428 1204.82 -125.778 1367.77 -124.71C1530.73 -123.642 1656.53 -65.3632 1773.08 -55.7027C1889.62 -46.0422 2018.04 -64.906 2067.04 -66.7467V-480.747L-727.464 -480.747V-66.7467Z" fill="url(#paint6_linear_8:483)"/>
</g>
<defs>
<linearGradient id="paint0_linear_8:483" x1="-727.464" y1="1113.6" x2="2026.45" y2="1548.02" gradientUnits="userSpaceOnUse">
<stop stop-color="#002A30"/>
</linearGradient>
<linearGradient id="paint1_linear_8:483" x1="-727.464" y1="926.474" x2="2007.62" y2="1415.3" gradientUnits="userSpaceOnUse">
<stop stop-color="#001D2A"/>
<stop offset="0.125" stop-color="#00242A"/>
</linearGradient>
<linearGradient id="paint2_linear_8:483" x1="-727.464" y1="692.352" x2="1970.95" y2="1270.87" gradientUnits="userSpaceOnUse">
<stop stop-color="#001923"/>
<stop offset="0.25" stop-color="#001F23"/>
</linearGradient>
<linearGradient id="paint3_linear_8:483" x1="-727.464" y1="543.513" x2="1934.48" y2="1197.15" gradientUnits="userSpaceOnUse">
<stop stop-color="#00141D"/>
<stop offset="0.375" stop-color="#00191D"/>
</linearGradient>
<linearGradient id="paint4_linear_8:483" x1="-727.464" y1="337.922" x2="1851.57" y2="1130.23" gradientUnits="userSpaceOnUse">
<stop stop-color="#001017"/>
<stop offset="0.5" stop-color="#001417"/>
</linearGradient>
<linearGradient id="paint5_linear_8:483" x1="-727.464" y1="124.833" x2="1679.77" y2="1124.59" gradientUnits="userSpaceOnUse">
<stop stop-color="#000B10"/>
<stop offset="0.625" stop-color="#000E10"/>
</linearGradient>
<linearGradient id="paint6_linear_8:483" x1="-727.464" y1="-29.8174" x2="1425.29" y2="1170.88" gradientUnits="userSpaceOnUse">
<stop stop-color="#00070A"/>
<stop offset="0.75" stop-color="#00090A"/>
</linearGradient>
<clipPath id="clip0_8:483">
<rect width="1440" height="810" fill="white"/>
</clipPath>
</defs>
</svg>
