<svg width="40" height="40" viewBox="0 0 40 40" fill="none" xmlns="http://www.w3.org/2000/svg">
<path d="M5 26.6666H13.3333V23.3333H5V26.6666ZM15.8333 26.6666H24.1667V23.3333H15.8333V26.6666ZM26.6667 26.6666H35V23.3333H26.6667V26.6666ZM5 33.3333H8.33333V30H5V33.3333ZM11.6667 33.3333H15V30H11.6667V33.3333ZM18.3333 33.3333H21.6667V30H18.3333V33.3333ZM25 33.3333H28.3333V30H25V33.3333ZM31.6667 33.3333H35V30H31.6667V33.3333ZM5 20H18.3333V16.6666H5V20ZM21.6667 20H35V16.6666H21.6667V20ZM5 6.66663V13.3333H35V6.66663H5Z" fill="#F96E46"/>
</svg>
