<svg width="24" height="24" viewBox="0 0 24 24" fill="none" xmlns="http://www.w3.org/2000/svg">
<path d="M21.3333 0H2.66667C1.19333 0 0 1.19333 0 2.66667V21.3333C0 22.8067 1.19333 24 2.66667 24H21.3333C22.8067 24 24 22.8067 24 21.3333V2.66667C24 1.19333 22.8067 0 21.3333 0ZM6.31733 18.6667C5.388 18.6667 4.63467 17.9133 4.63467 16.984V11.0147C4.636 10.0867 5.38933 9.33333 6.31733 9.33333C7.24667 9.33333 8 10.0867 8 11.016V16.9853C8 17.9133 7.24667 18.6667 6.31733 18.6667ZM6.25867 7.62267C5.23067 7.62267 4.544 6.93733 4.544 6.02267C4.544 5.108 5.22933 4.42267 6.372 4.42267C7.4 4.42267 8.08667 5.108 8.08667 6.02267C8.08667 6.93733 7.40133 7.62267 6.25867 7.62267ZM18.372 18.6667C17.4733 18.6667 16.744 17.9373 16.744 17.0387V13.5653C16.744 12.1547 15.876 12 15.5507 12C15.2253 12 14.14 12.0467 14.14 13.5653V17.0387C14.14 17.9373 13.4107 18.6667 12.512 18.6667H12.404C11.5053 18.6667 10.776 17.9373 10.776 17.0387V11.016C10.776 10.0867 11.5293 9.33333 12.4587 9.33333C13.388 9.33333 14.1413 10.0867 14.1413 11.016C14.1413 11.016 14.5173 9.33333 17.072 9.33333C18.6973 9.33333 20 10.636 20 13.5653V17.0387C20 17.9373 19.2707 18.6667 18.372 18.6667Z" fill="#F96E46"/>
</svg>
