<svg width="35" height="35" viewBox="0 0 35 35" fill="none" xmlns="http://www.w3.org/2000/svg">
<g clip-path="url(#clip0_8:466)">
<path d="M8.70045 18.2466C9.31719 22.3526 11.8282 25.229 15.5066 26.0414C20.6828 27.2052 25.7489 23.5602 26.1894 18.3124C26.2335 17.6537 26.4538 17.4781 27.0705 17.5C29.4053 17.522 31.7621 17.5439 34.0969 17.5C34.8899 17.4781 35 17.7855 34.978 18.4881C34.7357 26.0634 28.8546 33.0239 21.2996 34.6267C11.7181 36.6468 2.37887 30.7183 0.330411 21.2986C0.110147 20.3106 -0.0660648 19.3005 0.0220409 18.2685C0.154199 17.8294 0.440543 17.6757 0.903098 17.6757C3.21587 17.6757 5.52865 17.6757 7.84142 17.6757C8.28195 17.6537 8.63437 17.7196 8.70045 18.2466Z" fill="#F2F2F2"/>
<path d="M35 0C35 1.9542 35 3.66688 35 5.37955C35 8.34379 34.978 11.308 35.0221 14.2723C35.0221 14.9529 34.8679 15.1945 34.141 15.1725C31.7622 15.1286 29.3833 15.1506 27.0044 15.1725C26.4978 15.1725 26.2115 15.1286 26.2335 14.4918C26.608 8.21204 29.5815 3.53513 35 0Z" fill="#F2F2F2"/>
<path d="M8.70044 18.2465C8.5022 17.9611 8.23788 17.8513 7.86344 17.8513C5.57269 17.8733 3.25991 17.8733 0.947136 17.8513C0.550661 17.8513 0.264317 17.9831 0 18.2465C0 18.0489 0 17.8513 0 17.6537C2.48899 17.4561 4.95595 17.6098 7.44493 17.5659C7.86343 17.5659 8.28194 17.4341 8.67841 17.6756C8.70044 17.8733 8.70044 18.0489 8.70044 18.2465Z" fill="#F2F2F2"/>
<path d="M8.70045 17.6756C5.81499 17.6537 2.9075 17.6537 0.0220337 17.6317C0.176219 17.3682 0.41851 17.4561 0.638774 17.4561C3.10573 17.4561 5.5727 17.4561 8.01763 17.4561C8.25992 17.4561 8.56829 17.3463 8.70045 17.6756Z" fill="#F2F2F2"/>
</g>
<defs>
<clipPath id="clip0_8:466">
<rect width="35" height="35" fill="white"/>
</clipPath>
</defs>
</svg>
