<svg width="24" height="22" viewBox="0 0 24 22" fill="none" xmlns="http://www.w3.org/2000/svg">
<path d="M8.01758 0.0155717C7.27604 -0.0409718 6.54005 0.0849935 5.89453 0.458931C5.03384 0.957514 4.47266 1.81397 4.18359 2.77924C3.89453 3.74452 3.84362 4.84483 3.9668 6.04292C3.98095 6.18053 4.00457 6.32456 4.02344 6.46479C3.95302 6.49531 3.8776 6.52327 3.80859 6.55463C2.72607 7.04669 1.81321 7.64179 1.13281 8.37299C0.452416 9.10419 0 10.0123 0 10.9999C0 11.9875 0.452416 12.8957 1.13281 13.6269C1.81321 14.3581 2.72607 14.9532 3.80859 15.4453C3.8776 15.4766 3.95302 15.5046 4.02344 15.5351C4.00457 15.6753 3.98095 15.8194 3.9668 15.957C3.84356 17.1551 3.89458 18.2554 4.18359 19.2206C4.47261 20.1859 5.03191 21.0423 5.89258 21.541C6.75324 22.0396 7.77469 22.0985 8.75586 21.8691C9.73703 21.6397 10.7173 21.1383 11.6953 20.4355C11.7963 20.363 11.8972 20.278 11.998 20.2011C12.0996 20.2786 12.2011 20.3624 12.3027 20.4355C13.2808 21.1384 14.261 21.6416 15.2422 21.871C16.2233 22.1005 17.2448 22.0395 18.1055 21.541C18.9662 21.0424 19.5273 20.1859 19.8164 19.2206C20.1055 18.2554 20.1564 17.1551 20.0332 15.957C20.019 15.819 19.9935 15.6757 19.9746 15.5351C20.0456 15.5044 20.1219 15.4769 20.1914 15.4453C21.2739 14.9532 22.1868 14.3581 22.8672 13.6269C23.5476 12.8957 24 11.9875 24 10.9999C24 10.0123 23.5476 9.10419 22.8672 8.37299C22.1868 7.64179 21.2739 7.04669 20.1914 6.55463C20.1224 6.52327 20.047 6.49531 19.9766 6.46479C19.9954 6.32456 20.019 6.18053 20.0332 6.04292C20.1564 4.84484 20.1054 3.74453 19.8164 2.77924C19.5274 1.81395 18.9681 0.95756 18.1074 0.458931C17.2468 -0.0396973 16.2253 -0.0985969 15.2441 0.130806C14.263 0.360209 13.2827 0.861568 12.3047 1.5644C12.2033 1.63723 12.1013 1.72155 12 1.79877C11.899 1.72174 11.7984 1.63706 11.6973 1.5644C10.7192 0.861517 9.73897 0.360261 8.75781 0.130806C8.51252 0.0734424 8.26476 0.0344196 8.01758 0.0155717ZM7.49219 2.00581C7.72238 1.98421 7.98724 2.00475 8.30078 2.07807C8.91061 2.22069 9.66456 2.58066 10.4629 3.14448C9.83496 3.76542 9.21927 4.45975 8.62695 5.22846C7.68134 5.36002 6.78887 5.55102 5.95312 5.78706C5.85696 4.80103 5.92004 3.95961 6.10156 3.35346C6.28631 2.73653 6.55575 2.38678 6.89648 2.1894C7.06685 2.09071 7.26199 2.0274 7.49219 2.00581ZM16.1348 2.00581C16.5382 1.97037 16.848 2.04135 17.1035 2.1894C17.4442 2.3868 17.7157 2.73652 17.9004 3.35346C18.0819 3.95962 18.145 4.80103 18.0488 5.78706C17.2126 5.55078 16.3193 5.36012 15.373 5.22846C14.781 4.45998 14.1668 3.76529 13.5391 3.14448C14.3369 2.58126 15.0897 2.22057 15.6992 2.07807C15.856 2.04142 16.0003 2.01762 16.1348 2.00581ZM12 4.45307C12.1786 4.62642 12.3566 4.82201 12.5352 5.01167C12.3565 5.00796 12.1807 4.99995 12 4.99995C11.8193 4.99995 11.6435 5.00796 11.4648 5.01167C11.6434 4.82202 11.8214 4.62641 12 4.45307ZM12 6.99995C12.788 6.99995 13.5488 7.04807 14.2852 7.12299C14.7009 7.70536 15.104 8.32576 15.4844 8.98237C15.8754 9.65734 16.2171 10.3319 16.5215 10.9999C16.2171 11.668 15.8754 12.3445 15.4844 13.0195C15.104 13.6761 14.7009 14.2946 14.2852 14.8769C13.5488 14.9518 12.788 14.9999 12 14.9999C11.212 14.9999 10.4512 14.9518 9.71484 14.8769C9.29914 14.2945 8.89599 13.6761 8.51562 13.0195C8.12463 12.3445 7.78286 11.668 7.47852 10.9999C7.7829 10.3319 8.12459 9.65537 8.51562 8.98042C8.89602 8.32382 9.29911 7.70534 9.71484 7.12299C10.4512 7.04807 11.212 6.99995 12 6.99995ZM7.01758 7.59565C6.94037 7.72389 6.86087 7.84778 6.78516 7.97846C6.69496 8.13415 6.61347 8.28947 6.52734 8.44526C6.45894 8.21797 6.38473 7.98804 6.32812 7.76752C6.54591 7.70376 6.78749 7.65244 7.01758 7.59565ZM16.9824 7.5976C17.2123 7.65436 17.4542 7.7038 17.6719 7.76752C17.6153 7.98804 17.5411 8.21797 17.4727 8.44526C17.3867 8.28969 17.3049 8.13393 17.2148 7.97846C17.1392 7.84797 17.0595 7.72566 16.9824 7.5976ZM12 7.99995C10.346 7.99995 9 9.34595 9 10.9999C9 12.6539 10.346 13.9999 12 13.9999C13.654 13.9999 15 12.6539 15 10.9999C15 9.34595 13.654 7.99995 12 7.99995ZM4.43359 8.47456C4.65349 9.29488 4.93671 10.1384 5.29102 10.998C4.93616 11.8583 4.65186 12.7024 4.43164 13.5234C3.62651 13.1338 2.99425 12.6939 2.5957 12.2656C2.16284 11.8004 2 11.3931 2 10.9999C2 10.6068 2.16284 10.1995 2.5957 9.73432C2.99465 9.30559 3.6273 8.86442 4.43359 8.47456ZM19.5684 8.47651C20.3735 8.86609 21.0057 9.30601 21.4043 9.73432C21.8372 10.1995 22 10.6068 22 10.9999C22 11.3931 21.8372 11.8004 21.4043 12.2656C21.0055 12.6942 20.3723 13.1336 19.5664 13.5234C19.3464 12.7033 19.0633 11.8593 18.709 10.9999C19.0635 10.1402 19.3483 9.29702 19.5684 8.47651ZM6.52734 13.5546C6.61346 13.7104 6.69497 13.8657 6.78516 14.0214C6.86058 14.1516 6.94067 14.2745 7.01758 14.4023C6.78765 14.3455 6.54576 14.2961 6.32812 14.2324C6.38474 14.0119 6.45892 13.7819 6.52734 13.5546ZM17.4727 13.5546C17.541 13.7817 17.6153 14.0121 17.6719 14.2324C17.4541 14.2961 17.2125 14.3475 16.9824 14.4042C17.0596 14.276 17.1391 14.1521 17.2148 14.0214C17.305 13.8657 17.3865 13.7104 17.4727 13.5546ZM5.95117 16.2128C6.78743 16.4491 7.68065 16.6398 8.62695 16.7714C9.21892 17.5398 9.83337 18.2347 10.4609 18.8554C9.66309 19.4186 8.91027 19.7793 8.30078 19.9218C7.67369 20.0684 7.2372 20.0079 6.89648 19.8105C6.55576 19.6131 6.28433 19.2634 6.09961 18.6464C5.91812 18.0403 5.85496 17.1989 5.95117 16.2128ZM18.0488 16.2128C18.145 17.1989 18.0819 18.0422 17.9004 18.6484C17.7156 19.2653 17.4442 19.6131 17.1035 19.8105C16.7628 20.0079 16.3263 20.0685 15.6992 19.9218C15.0894 19.7792 14.3355 19.4193 13.5371 18.8554C14.165 18.2345 14.7807 17.5401 15.373 16.7714C16.3193 16.6398 17.2126 16.4491 18.0488 16.2128ZM11.4648 16.9882C11.6435 16.9919 11.8193 16.9999 12 16.9999C12.1807 16.9999 12.3565 16.9919 12.5352 16.9882C12.3566 17.1779 12.1786 17.3735 12 17.5468C11.8214 17.3735 11.6434 17.1779 11.4648 16.9882Z" fill="#002230"/>
</svg>
