<svg width="30" height="25" viewBox="0 0 30 25" fill="none" xmlns="http://www.w3.org/2000/svg">
<path d="M30 0C28.83 0.6945 26.4825 1.641 25.1025 1.914C25.062 1.9245 25.029 1.938 24.99 1.9485C23.7705 0.7455 22.0995 0 20.25 0C16.5225 0 13.5 3.0225 13.5 6.75C13.5 6.9465 13.4835 7.308 13.5 7.5C8.4705 7.5 4.6425 4.866 1.8975 1.5C1.599 2.25 1.4685 3.435 1.4685 4.548C1.4685 6.6495 3.111 8.7135 5.6685 9.99302C5.1975 10.1145 4.6785 10.2015 4.1385 10.2015C3.267 10.2015 2.3445 9.97201 1.5 9.27601C1.5 9.30151 1.5 9.32551 1.5 9.35252C1.5 12.2895 4.617 14.289 7.389 14.8455C6.8265 15.177 5.6925 15.21 5.139 15.21C4.749 15.21 3.369 15.0315 3 14.9625C3.771 17.37 6.552 18.723 9.2025 18.771C7.1295 20.397 5.691 21 1.446 21H0C2.682 22.719 6.0975 24.0015 9.5205 24.0015C20.6655 24.0015 27 15.507 27 7.5C27 7.371 26.997 7.101 26.9925 6.8295C26.9925 6.8025 27 6.777 27 6.75C27 6.7095 26.988 6.6705 26.988 6.63C26.9835 6.426 26.979 6.2355 26.9745 6.1365C28.1595 5.2815 29.187 4.215 30 3C28.9125 3.483 27.7455 3.807 26.52 3.954C27.771 3.204 29.5485 1.416 30 0Z" fill="#F96E46"/>
</svg>
