<?xml version="1.0" encoding="UTF-8"?>
<svg xmlns="http://www.w3.org/2000/svg" xmlns:xlink="http://www.w3.org/1999/xlink" viewBox="0 0 48 48" width="48px" height="48px">
<g id="surface20453685">
<path style=" stroke:none;fill-rule:nonzero;fill:rgb(0%,0%,0%);fill-opacity:1;" d="M 24 4 L 7 14 L 7 34 L 24 44 L 41 34 L 41 14 Z M 24 4 "/>
<path style=" stroke:none;fill-rule:nonzero;fill:rgb(40.000001%,40.000001%,40.000001%);fill-opacity:1;" d="M 23.5 24.5 L 23.5 33.5 L 15 29 L 15 19.5 Z M 23.5 24.5 "/>
<path style=" stroke:none;fill-rule:nonzero;fill:rgb(40.000001%,40.000001%,40.000001%);fill-opacity:1;" d="M 24.5 24.5 L 24.5 33.5 L 33 29 L 33 19.5 Z M 24.5 24.5 "/>
<path style=" stroke:none;fill-rule:nonzero;fill:rgb(40.000001%,40.000001%,40.000001%);fill-opacity:1;" d="M 24 23.5 L 15.5 18.5 L 24 14 L 32.5 18.5 Z M 24 23.5 "/>
<path style=" stroke:none;fill-rule:nonzero;fill:rgb(100%,100%,100%);fill-opacity:1;" d="M 23.5 7 L 23.5 13 L 14.5 18 L 9.5 15 Z M 23.5 7 "/>
<path style=" stroke:none;fill-rule:nonzero;fill:rgb(100%,100%,100%);fill-opacity:1;" d="M 23.5 41 L 23.5 35 L 14.5 30 L 9.5 33 Z M 23.5 41 "/>
<path style=" stroke:none;fill-rule:nonzero;fill:rgb(100%,100%,100%);fill-opacity:1;" d="M 14 19 L 9 16 L 9 32 L 14 29 Z M 14 19 "/>
<path style=" stroke:none;fill-rule:nonzero;fill:rgb(100%,100%,100%);fill-opacity:1;" d="M 24.5 7 L 24.5 13 L 33.5 18 L 38.5 15 Z M 24.5 7 "/>
<path style=" stroke:none;fill-rule:nonzero;fill:rgb(100%,100%,100%);fill-opacity:1;" d="M 24.5 41 L 24.5 35 L 33.5 30 L 38.5 33 Z M 24.5 41 "/>
<path style=" stroke:none;fill-rule:nonzero;fill:rgb(100%,100%,100%);fill-opacity:1;" d="M 34 19 L 39 16 L 39 32 L 34 29 Z M 34 19 "/>
</g>
</svg>
