<?xml version="1.0" encoding="UTF-8"?>
<svg xmlns="http://www.w3.org/2000/svg" xmlns:xlink="http://www.w3.org/1999/xlink" viewBox="0 0 64 64" width="64px" height="64px">
<g id="surface59854842">
<path style=" stroke:none;fill-rule:nonzero;fill:rgb(90.196079%,49.411765%,13.333334%);fill-opacity:1;" d="M 31.964844 2.003906 C 31.953125 2.003906 31.945312 2.003906 31.933594 2.007812 C 31.90625 2.007812 31.882812 2.015625 31.859375 2.019531 C 31.757812 2.035156 31.664062 2.0625 31.574219 2.105469 C 31.558594 2.113281 31.539062 2.109375 31.527344 2.117188 L 5.527344 16.117188 C 5.441406 16.164062 5.367188 16.222656 5.304688 16.285156 C 5.289062 16.296875 5.28125 16.316406 5.269531 16.332031 C 5.203125 16.402344 5.148438 16.480469 5.109375 16.570312 C 5.09375 16.597656 5.078125 16.625 5.070312 16.65625 C 5.027344 16.765625 5 16.875 5 16.996094 L 5 47 C 5 47.089844 5.011719 47.175781 5.035156 47.261719 C 5.066406 47.371094 5.117188 47.472656 5.183594 47.566406 C 5.199219 47.589844 5.214844 47.609375 5.234375 47.628906 C 5.304688 47.71875 5.386719 47.800781 5.492188 47.859375 C 5.492188 47.859375 5.496094 47.859375 5.496094 47.863281 C 5.496094 47.863281 5.5 47.863281 5.5 47.867188 L 31.488281 62.859375 C 31.488281 62.859375 31.492188 62.859375 31.492188 62.863281 C 31.492188 62.863281 31.496094 62.863281 31.496094 62.863281 L 31.5 62.867188 C 31.546875 62.890625 31.59375 62.90625 31.640625 62.925781 C 31.675781 62.9375 31.707031 62.957031 31.742188 62.964844 C 31.828125 62.988281 31.914062 63 32 63 C 32.085938 63 32.171875 62.988281 32.253906 62.96875 C 32.269531 62.960938 32.285156 62.953125 32.304688 62.949219 C 32.363281 62.925781 32.425781 62.90625 32.488281 62.875 L 59.488281 47.875 C 59.492188 47.871094 59.492188 47.867188 59.496094 47.863281 C 59.503906 47.859375 59.515625 47.855469 59.527344 47.851562 C 59.617188 47.792969 59.695312 47.71875 59.761719 47.640625 C 59.777344 47.617188 59.792969 47.597656 59.808594 47.574219 C 59.867188 47.492188 59.914062 47.402344 59.949219 47.304688 C 59.953125 47.289062 59.957031 47.277344 59.960938 47.265625 C 59.984375 47.179688 60 47.089844 60 47 L 60 17 C 60 16.992188 59.996094 16.988281 59.996094 16.980469 C 59.992188 16.871094 59.96875 16.765625 59.933594 16.664062 C 59.917969 16.628906 59.90625 16.597656 59.890625 16.5625 C 59.847656 16.480469 59.796875 16.40625 59.738281 16.339844 C 59.722656 16.320312 59.710938 16.300781 59.695312 16.285156 C 59.625 16.21875 59.550781 16.160156 59.460938 16.113281 L 32.460938 2.113281 C 32.417969 2.09375 32.375 2.082031 32.332031 2.066406 C 32.308594 2.058594 32.285156 2.046875 32.261719 2.042969 C 32.164062 2.015625 32.0625 2 31.964844 2.003906 Z M 33 4.644531 L 56.796875 16.984375 L 47.015625 21.875 L 33 14.402344 Z M 31 4.675781 L 31 14.402344 L 17.007812 21.863281 L 8.097656 17.007812 Z M 32 16.132812 L 44.875 23 L 32 29.867188 L 19.125 23 Z M 58 18.617188 L 58 45.382812 L 48 40.382812 L 48 23.617188 Z M 7 18.6875 L 16 23.59375 L 16 26 C 16 26.554688 16.449219 27 17 27 C 17.550781 27 18 26.554688 18 26 L 18 24.667969 L 31 31.601562 L 31 47.332031 L 18 40.402344 L 18 38 C 18 37.445312 17.550781 37 17 37 C 16.449219 37 16 37.445312 16 38 L 16 40.40625 L 7 45.316406 Z M 46 24.667969 L 46 41 C 46 41.050781 46.019531 41.09375 46.027344 41.140625 C 46.039062 41.210938 46.042969 41.285156 46.070312 41.351562 C 46.09375 41.410156 46.128906 41.460938 46.164062 41.515625 C 46.199219 41.570312 46.226562 41.625 46.273438 41.671875 C 46.320312 41.726562 46.378906 41.761719 46.4375 41.804688 C 46.476562 41.832031 46.507812 41.871094 46.554688 41.894531 L 56.859375 47.046875 L 33 60.300781 L 33 31.597656 Z M 17 29 C 16.449219 29 16 29.445312 16 30 L 16 34 C 16 34.554688 16.449219 35 17 35 C 17.550781 35 18 34.554688 18 34 L 18 30 C 18 29.445312 17.550781 29 17 29 Z M 43.109375 40.898438 C 42.976562 40.910156 42.847656 40.949219 42.726562 41.011719 C 42.238281 41.273438 42.054688 41.878906 42.316406 42.363281 L 43.257812 44.128906 C 43.4375 44.46875 43.78125 44.660156 44.140625 44.660156 C 44.296875 44.660156 44.457031 44.621094 44.609375 44.542969 C 45.097656 44.28125 45.28125 43.675781 45.019531 43.191406 L 44.078125 41.425781 C 43.882812 41.058594 43.496094 40.863281 43.109375 40.898438 Z M 17.003906 42.136719 L 31 49.597656 L 31 60.269531 L 8.042969 47.023438 Z M 38.9375 43.121094 C 38.808594 43.132812 38.679688 43.167969 38.558594 43.234375 C 38.070312 43.496094 37.886719 44.101562 38.144531 44.585938 L 39.085938 46.351562 C 39.269531 46.691406 39.617188 46.882812 39.972656 46.882812 C 40.128906 46.882812 40.289062 46.84375 40.441406 46.765625 C 40.929688 46.503906 41.113281 45.898438 40.855469 45.410156 L 39.914062 43.644531 C 39.714844 43.28125 39.328125 43.085938 38.941406 43.121094 Z M 34.773438 45.34375 C 34.644531 45.351562 34.515625 45.390625 34.390625 45.457031 C 33.90625 45.71875 33.71875 46.324219 33.980469 46.808594 L 34.921875 48.574219 C 35.101562 48.910156 35.449219 49.105469 35.804688 49.105469 C 35.960938 49.105469 36.125 49.066406 36.273438 48.988281 C 36.761719 48.726562 36.945312 48.121094 36.683594 47.632812 L 35.742188 45.867188 C 35.550781 45.503906 35.164062 45.308594 34.773438 45.34375 Z M 34.773438 45.34375 "/>
</g>
</svg>
